<?xml version="1.0" encoding="utf-8"?>
<!-- Generator: Adobe Illustrator 23.0.1, SVG Export Plug-In . SVG Version: 6.00 Build 0)  -->
<svg version="1.1" id="Layer_1" xmlns="http://www.w3.org/2000/svg" xmlns:xlink="http://www.w3.org/1999/xlink" x="0px" y="0px"
	 viewBox="0 0 43.7 58.3" style="enable-background:new 0 0 43.7 58.3;" xml:space="preserve">
<style type="text/css">
	.st0{fill:#F2F1EF;}
	.st1{fill:url(#SVGID_1_);}
	.st2{fill:url(#SVGID_2_);}
	.st3{fill:url(#SVGID_3_);}
	.st4{fill:#EC1A5C;}
	.st5{fill:#222222;}
	.st6{fill:url(#SVGID_4_);}
	.st7{fill:#FFFFFF;}
</style>
<g>
	<g>
		<circle class="st0" cx="21.2" cy="21.2" r="16.8"/>
		<linearGradient id="SVGID_1_" gradientUnits="userSpaceOnUse" x1="0" y1="29.1277" x2="43.6911" y2="29.1277">
			<stop  offset="0" style="stop-color:#DDDDDD"/>
			<stop  offset="0.1827" style="stop-color:#E0E1E0"/>
			<stop  offset="0.3883" style="stop-color:#E5E5E5"/>
			<stop  offset="0.6028" style="stop-color:#EAE9EB"/>
			<stop  offset="0.7726" style="stop-color:#EDEBEE"/>
			<stop  offset="0.8978" style="stop-color:#F3F0F2"/>
			<stop  offset="1" style="stop-color:#F4F0F1"/>
		</linearGradient>
		<path class="st1" d="M21.8,0C9.8,0,0,9.8,0,21.8c0,12.1,18.2,36.4,21.8,36.4c3.6,0,21.8-24.3,21.8-36.4C43.7,9.8,33.9,0,21.8,0
			L21.8,0z M21.8,36.4c-8,0-14.6-6.5-14.6-14.6c0-8,6.5-14.6,14.6-14.6c8,0,14.6,6.5,14.6,14.6C36.4,29.9,29.9,36.4,21.8,36.4
			L21.8,36.4z M21.8,36.4"/>
	</g>
	<g>
		<g>
			
				<linearGradient id="SVGID_2_" gradientUnits="userSpaceOnUse" x1="19.5041" y1="383.7982" x2="25.8503" y2="412.4691" gradientTransform="matrix(1 0 0 -1 0 410.11)">
				<stop  offset="0" style="stop-color:#B4802D"/>
				<stop  offset="0.1782" style="stop-color:#C59533"/>
				<stop  offset="0.4151" style="stop-color:#F7DE7C"/>
				<stop  offset="0.6296" style="stop-color:#D5AD3E"/>
				<stop  offset="0.8039" style="stop-color:#BD8E2D"/>
				<stop  offset="1" style="stop-color:#B2822C"/>
			</linearGradient>
			<path class="st2" d="M14.6,24.2c3.2-3.2,6.3-6.3,9.5-9.5c0.1,0.1,0.2,0.2,0.4,0.4c-3,3-6,6-9,9c0.2,0.1,0.3,0.2,0.4,0.4
				c3-3,6-6,9-9c0.7,0.7,1.3,1.3,2,2c-3.1,3.1-6.3,6.3-9.5,9.5C16.4,26,15.5,25.1,14.6,24.2z"/>
			
				<linearGradient id="SVGID_3_" gradientUnits="userSpaceOnUse" x1="20.1256" y1="383.3376" x2="13.9306" y2="404.1136" gradientTransform="matrix(1 0 0 -1 0 410.11)">
				<stop  offset="0" style="stop-color:#B4802D"/>
				<stop  offset="0.1782" style="stop-color:#C59533"/>
				<stop  offset="0.4151" style="stop-color:#F7DE7C"/>
				<stop  offset="0.6296" style="stop-color:#D5AD3E"/>
				<stop  offset="0.8039" style="stop-color:#BD8E2D"/>
				<stop  offset="1" style="stop-color:#B2822C"/>
			</linearGradient>
			<path class="st3" d="M20.1,17.7c-0.6,0.6-1.2,1.2-1.9,1.9c-0.4-0.4-0.7-0.8-1.1-1.2c-0.9-1-1.9-2.1-2.9-3.1
				c-0.4-0.5-0.7-1-0.7-1.6c0-1.1,0.9-1.8,1.9-1.5c0.5,0.2,1,0.5,1.4,0.9C17.9,14.6,19.1,16.2,20.1,17.7
				C20.1,17.6,20.1,17.7,20.1,17.7z M14.9,12.5c0.5,0.3,0.9,0.6,1.2,1.2c0.2-0.1,0.3-0.3,0.5-0.4C16.3,12.7,15.6,12.4,14.9,12.5z"/>
			<path class="st4" d="M24.6,14.2c0.3-0.3,0.6-0.7,1-1.1c0.4-0.4,1.2-0.5,1.6,0.1c0.3,0.4,0.7,0.7,1,1c0.5,0.5,0.5,1.1,0.1,1.5
				c-0.2,0.3-0.5,0.5-0.7,0.7c-0.1,0.1-0.2,0.3-0.4,0.4C26.4,16,25.5,15.1,24.6,14.2z"/>
			<path class="st5" d="M29.9,28.1L29.9,28.1c-0.2,0.1-0.5,0.2-0.8,0.2c-1.3,0.1-2.5,0.1-3.7-0.3c-0.2,0-0.3-0.1-0.5-0.2
				c-0.1,0-0.2-0.1-0.4-0.2c-0.5-0.3-0.5-0.7-0.3-1.2c0.3-0.7,1.4-1.3,2.1-1.2c0.6,0.1,0.9,0.4,1.1,0.9c0.1,0.3,0.2,0.6,0.3,0.9
				c0,0,0,0.1,0,0.1c0.2,0.5,0.7,0.8,1.2,0.8c0.2,0,0.5,0,0.7,0C29.8,28.1,29.9,28.1,29.9,28.1z"/>
			<path class="st5" d="M14.2,24.6c0.9,0.9,1.8,1.8,2.7,2.7c-1.2,0.3-2.4,0.6-3.6,0.9C13.5,27,13.9,25.8,14.2,24.6z"/>
			
				<linearGradient id="SVGID_4_" gradientUnits="userSpaceOnUse" x1="23.9082" y1="384.4654" x2="17.7131" y2="405.2415" gradientTransform="matrix(1 0 0 -1 0 410.11)">
				<stop  offset="0" style="stop-color:#B4802D"/>
				<stop  offset="0.1782" style="stop-color:#C59533"/>
				<stop  offset="0.4151" style="stop-color:#F7DE7C"/>
				<stop  offset="0.6296" style="stop-color:#D5AD3E"/>
				<stop  offset="0.8039" style="stop-color:#BD8E2D"/>
				<stop  offset="1" style="stop-color:#B2822C"/>
			</linearGradient>
			<path class="st6" d="M21.7,23.4c0.5-0.5,0.9-0.9,1.4-1.4c0,0,0.1,0.1,0.1,0.1c0.6,0.8,1.2,1.6,1.7,2.4c0.2,0.3,0.2,0.4-0.1,0.6
				c-0.2,0.2-0.5,0.4-0.7,0.6c-0.2,0.2-0.3,0.2-0.5,0C23.1,24.9,22.4,24.1,21.7,23.4z"/>
			<path class="st4" d="M29.9,28.1L29.9,28.1c-0.2,0.1-0.5,0.2-0.8,0.2c-1.3,0.1-2.5,0.1-3.7-0.3c-0.2,0-0.3-0.1-0.5-0.2
				c0.2-0.2,0.5-0.6,1.1-0.2c0.5,0.4,0.7,0.1,0.7-0.2c0.1-0.4,0.6-0.6,0.9-0.5l0,0c0,0,0,0.1,0,0.1c0.2,0.5,0.7,0.8,1.2,0.8
				c0.2,0,0.5,0,0.7,0C29.8,28.1,29.9,28.1,29.9,28.1z"/>
		</g>
		<g>
			<g>
				<path class="st4" d="M29.4,29.6c-0.1,0.7,0.4,0.8,0.5,0.8c0.1,0,0.6-0.1,0.5-0.8c0-0.4-0.5-1.2-0.5-1.2S29.5,29.3,29.4,29.6z"/>
			</g>
			<path class="st7" d="M30.2,29.5c0,0,0,0.5-0.1,0.7C30.1,30.2,30.6,29.9,30.2,29.5z"/>
		</g>
	</g>
</g>
</svg>
